<svg width="47" height="43" viewBox="0 0 47 43" fill="none" xmlns="http://www.w3.org/2000/svg">
<path fill-rule="evenodd" clip-rule="evenodd" d="M23.5 0C23.9794 0 24.4392 0.188765 24.7782 0.524767C25.1172 0.86077 25.3077 1.31649 25.3077 1.79167V41.2083C25.3077 41.6835 25.1172 42.1392 24.7782 42.4752C24.4392 42.8112 23.9794 43 23.5 43C23.0206 43 22.5608 42.8112 22.2218 42.4752C21.8828 42.1392 21.6923 41.6835 21.6923 41.2083V1.79167C21.6923 1.31649 21.8828 0.86077 22.2218 0.524767C22.5608 0.188765 23.0206 0 23.5 0ZM16.2692 7.16667C16.7487 7.16667 17.2085 7.35543 17.5475 7.69143C17.8865 8.02744 18.0769 8.48315 18.0769 8.95833V34.0417C18.0769 34.5168 17.8865 34.9726 17.5475 35.3086C17.2085 35.6446 16.7487 35.8333 16.2692 35.8333C15.7898 35.8333 15.33 35.6446 14.991 35.3086C14.652 34.9726 14.4615 34.5168 14.4615 34.0417V8.95833C14.4615 8.48315 14.652 8.02744 14.991 7.69143C15.33 7.35543 15.7898 7.16667 16.2692 7.16667ZM30.7308 7.16667C31.2102 7.16667 31.67 7.35543 32.009 7.69143C32.348 8.02744 32.5385 8.48315 32.5385 8.95833V34.0417C32.5385 34.5168 32.348 34.9726 32.009 35.3086C31.67 35.6446 31.2102 35.8333 30.7308 35.8333C30.2513 35.8333 29.7915 35.6446 29.4525 35.3086C29.1135 34.9726 28.9231 34.5168 28.9231 34.0417V8.95833C28.9231 8.48315 29.1135 8.02744 29.4525 7.69143C29.7915 7.35543 30.2513 7.16667 30.7308 7.16667ZM9.03846 12.5417C9.51789 12.5417 9.97768 12.7304 10.3167 13.0664C10.6557 13.4024 10.8462 13.8582 10.8462 14.3333V28.6667C10.8462 29.1418 10.6557 29.5976 10.3167 29.9336C9.97768 30.2696 9.51789 30.4583 9.03846 30.4583C8.55903 30.4583 8.09924 30.2696 7.76023 29.9336C7.42122 29.5976 7.23077 29.1418 7.23077 28.6667V14.3333C7.23077 13.8582 7.42122 13.4024 7.76023 13.0664C8.09924 12.7304 8.55903 12.5417 9.03846 12.5417ZM37.9615 12.5417C38.441 12.5417 38.9008 12.7304 39.2398 13.0664C39.5788 13.4024 39.7692 13.8582 39.7692 14.3333V28.6667C39.7692 29.1418 39.5788 29.5976 39.2398 29.9336C38.9008 30.2696 38.441 30.4583 37.9615 30.4583C37.4821 30.4583 37.0223 30.2696 36.6833 29.9336C36.3443 29.5976 36.1538 29.1418 36.1538 28.6667V14.3333C36.1538 13.8582 36.3443 13.4024 36.6833 13.0664C37.0223 12.7304 37.4821 12.5417 37.9615 12.5417ZM1.80769 16.125C2.28712 16.125 2.74692 16.3138 3.08592 16.6498C3.42493 16.9858 3.61538 17.4415 3.61538 17.9167V25.0833C3.61538 25.5585 3.42493 26.0142 3.08592 26.3502C2.74692 26.6862 2.28712 26.875 1.80769 26.875C1.32826 26.875 0.868469 26.6862 0.529461 26.3502C0.190453 26.0142 0 25.5585 0 25.0833V17.9167C0 17.4415 0.190453 16.9858 0.529461 16.6498C0.868469 16.3138 1.32826 16.125 1.80769 16.125ZM45.1923 16.125C45.6717 16.125 46.1315 16.3138 46.4705 16.6498C46.8095 16.9858 47 17.4415 47 17.9167V25.0833C47 25.5585 46.8095 26.0142 46.4705 26.3502C46.1315 26.6862 45.6717 26.875 45.1923 26.875C44.7129 26.875 44.2531 26.6862 43.9141 26.3502C43.5751 26.0142 43.3846 25.5585 43.3846 25.0833V17.9167C43.3846 17.4415 43.5751 16.9858 43.9141 16.6498C44.2531 16.3138 44.7129 16.125 45.1923 16.125Z" fill="black"/>
</svg>
