<svg width="37" height="37" viewBox="0 0 37 37" fill="none" xmlns="http://www.w3.org/2000/svg">
<circle cx="18.5" cy="18.5" r="18.5" fill="#2C2C2C"/>
<path d="M19.9071 26H17.0933C16.917 26 16.746 25.9416 16.6087 25.8344C16.4713 25.7271 16.3758 25.5776 16.3381 25.4105L16.0235 23.9975C15.6038 23.8191 15.2058 23.596 14.8369 23.3323L13.4169 23.771C13.2488 23.823 13.0674 23.8177 12.9029 23.7559C12.7384 23.6941 12.6006 23.5795 12.5124 23.4313L11.1024 21.068C11.0152 20.9196 10.9825 20.7469 11.0096 20.5781C11.0367 20.4093 11.122 20.2544 11.2516 20.1388L12.3532 19.1637C12.3031 18.7221 12.3031 18.2764 12.3532 17.8348L11.2516 16.862C11.1218 16.7463 11.0364 16.5913 11.0093 16.4223C10.9821 16.2534 11.015 16.0805 11.1024 15.932L12.5093 13.5672C12.5975 13.419 12.7353 13.3044 12.8998 13.2426C13.0643 13.1808 13.2457 13.1755 13.4138 13.2275L14.8338 13.6662C15.0224 13.5312 15.2188 13.4052 15.4213 13.2912C15.6169 13.1847 15.8179 13.088 16.0235 13.0017L16.3389 11.5902C16.3764 11.4231 16.4717 11.2735 16.6089 11.1662C16.7461 11.0588 16.9171 11.0002 17.0933 11H19.9071C20.0834 11.0002 20.2543 11.0588 20.3915 11.1662C20.5288 11.2735 20.6241 11.4231 20.6616 11.5902L20.9801 13.0025C21.3993 13.182 21.7971 13.405 22.1667 13.6678L23.5875 13.229C23.7555 13.1772 23.9366 13.1826 24.101 13.2444C24.2654 13.3062 24.403 13.4206 24.4911 13.5688L25.898 15.9335C26.0774 16.2387 26.0155 16.625 25.7488 16.8628L24.6473 17.8377C24.6974 18.2794 24.6974 18.7251 24.6473 19.1667L25.7488 20.1418C26.0155 20.3802 26.0774 20.7657 25.898 21.071L24.4911 23.4357C24.403 23.584 24.2652 23.6986 24.1007 23.7604C23.9361 23.8222 23.7548 23.8275 23.5867 23.7755L22.1667 23.3368C21.798 23.6003 21.4003 23.8231 20.9809 24.0012L20.6616 25.4105C20.6239 25.5775 20.5286 25.7269 20.3913 25.8341C20.2541 25.9413 20.0833 25.9999 19.9071 26ZM18.4971 15.5C17.6771 15.5 16.8906 15.8161 16.3107 16.3787C15.7308 16.9413 15.4051 17.7044 15.4051 18.5C15.4051 19.2956 15.7308 20.0587 16.3107 20.6213C16.8906 21.1839 17.6771 21.5 18.4971 21.5C19.3172 21.5 20.1037 21.1839 20.6836 20.6213C21.2635 20.0587 21.5892 19.2956 21.5892 18.5C21.5892 17.7044 21.2635 16.9413 20.6836 16.3787C20.1037 15.8161 19.3172 15.5 18.4971 15.5Z" fill="white"/>
</svg>
