<svg width="37" height="37" viewBox="0 0 37 37" fill="none" xmlns="http://www.w3.org/2000/svg">
<rect x="9.52747" y="4.8717" width="18.87" height="27.8117" fill="#D4EB46"/>
<path d="M18.5 0C8.28273 0 0 8.28273 0 18.5C0 28.7173 8.28273 37 18.5 37C28.7173 37 37 28.7173 37 18.5C37 8.28273 28.7173 0 18.5 0ZM17.8519 6.46779V10.0359H19.173V6.46779C19.7826 6.51761 20.3862 6.63913 20.9729 6.81784V10.0359H22.294V7.34401C22.869 7.63023 23.4179 7.97603 23.9199 8.39185C23.9226 8.39407 23.924 8.39641 23.9267 8.39863V21.5803C23.9241 21.5825 23.9226 21.5849 23.9199 21.5871C22.4167 22.8278 20.4921 23.5398 18.5 23.5405C16.5531 23.5368 14.6137 22.8575 13.0801 21.5871C13.0775 21.5849 13.076 21.5826 13.0733 21.5803V8.39863C13.076 8.39641 13.0775 8.39407 13.0801 8.39185C13.5856 7.9747 14.1414 7.62339 14.7287 7.33269V10.0359H16.0521V6.80877C16.635 6.63237 17.2377 6.51567 17.8519 6.46779ZM10.4763 17.0005H12.0345V22.9737C13.7989 24.4145 16.0481 25.2794 18.5 25.2794C20.9519 25.2794 23.2011 24.4145 24.9655 22.9737V17.0005H26.5237V23.7505C26.04 24.1969 25.5181 24.6017 24.9655 24.9633C23.6924 25.7962 22.2522 26.3912 20.7041 26.6841V28.8791H23.3102V30.5322H13.6898V28.8791H16.2959V26.6841C14.7478 26.3912 13.3076 25.7962 12.0345 24.9633C11.4819 24.6017 10.9599 24.1969 10.4763 23.7505V17.0005ZM16.2959 26.6841C17.0096 26.8191 17.7471 26.8896 18.5 26.8896C19.2529 26.8896 19.9904 26.8191 20.7041 26.6841V25.905H16.2959V26.6841Z" fill="#2C2C2C"/>
</svg>
